Coordinates
version=1
nRows=8
nColumns=46
inDegrees=yes

Units are S.I. units (second, meters, Newtons, ...)
Angles are in degrees.

endheader
time	pelvis_tilt	pelvis_list	pelvis_rotation	pelvis_tx	pelvis_ty	pelvis_tz	bb_angle	bb_tx	bb_ty	bb_tz	hip_flexion_r	hip_adduction_r	hip_rotation_r	knee_angle_r	knee_angle_r_beta	ankle_angle_r	subtalar_angle_r	mtp_angle_r	crank_angle_r	hip_flexion_l	hip_adduction_l	hip_rotation_l	knee_angle_l	knee_angle_l_beta	ankle_angle_l	subtalar_angle_l	mtp_angle_l	crank_angle_l	lumbar_extension	lumbar_bending	lumbar_rotation	arm_flex_r	arm_add_r	arm_rot_r	elbow_flex_r	pro_sup_r	wrist_flex_r	wrist_dev_r	arm_flex_l	arm_add_l	arm_rot_l	elbow_flex_l	pro_sup_l	wrist_flex_l	wrist_dev_l
      2.50500000	    -16.73153323	     -5.85652955	     -0.39549233	      0.11175425	      1.10404151	     -0.25277583	      0.00000000	      0.50000000	      0.00000000	      0.25000000	     78.90772537	     -2.19285785	     -2.71431228	    108.11473242	      1.88695805	     -4.32958951	    -13.71724438	      0.00000000	      0.00000000	     53.48516481	     -5.98667545	      8.34405430	     36.71231859	      0.64075084	    -11.37696611	    -13.97477571	      0.00000000	      0.00000000	    -57.54871103	      0.22571570	      5.16978387	     89.75676734	    -10.59280984	     34.11426814	     35.21474826	     24.12827136	      0.00000000	      0.00000000	     89.63992660	     -4.53081718	     33.73310155	     41.70230396	     25.23023959	      0.00000000	      0.00000000
      2.51000000	    -16.64590268	     -5.95380197	     -0.68521377	      0.11297179	      1.10488960	     -0.25308430	      0.00000000	      0.50000000	      0.00000000	      0.25000000	     79.66514677	     -2.11858918	     -2.68222897	    108.96507610	      1.90179935	     -3.67879407	    -13.12463930	      0.00000000	      0.00000000	     52.29983189	     -6.48104974	      7.92142071	     35.45142845	      0.61874415	    -12.39337337	    -13.27425970	      0.00000000	      0.00000000	    -57.58179561	      0.12207670	      5.31495168	     89.75905136	    -10.32804284	     34.33817427	     34.74093678	     23.94310738	      0.00000000	      0.00000000	     89.64389388	     -4.43245921	     34.00653024	     41.12262290	     25.11557977	      0.00000000	      0.00000000
      2.51500000	    -16.63752673	     -5.95731854	     -1.03345147	      0.11440980	      1.10598414	     -0.25364964	      0.00000000	      0.50000000	      0.00000000	      0.25000000	     80.44985002	     -2.04925538	     -2.56023411	    109.69983353	      1.91462328	     -2.54748789	    -12.81394549	      0.00000000	      0.00000000	     51.09730800	     -6.91516283	      7.31923216	     34.08497958	      0.59489512	    -13.45849583	    -12.65903364	      0.00000000	      0.00000000	    -57.58485577	     -0.04808843	      5.40895905	     89.76261256	    -10.06642839	     34.52416896	     34.38635731	     23.77317118	      0.00000000	      0.00000000	     89.64792234	     -4.38695371	     34.23480928	     40.69269462	     25.02632016	      0.00000000	      0.00000000
      2.52000000	    -16.83798162	     -6.29447291	     -1.19030983	      0.11519823	      1.10648058	     -0.25418677	      0.00000000	      0.50000000	      0.00000000	      0.25000000	     81.44704904	     -1.97261745	     -2.82943667	    110.33773952	      1.92575684	     -2.26372313	    -12.73920764	      0.00000000	      0.00000000	     50.33283808	     -7.45370771	      7.14650430	     32.94284367	      0.57496109	    -14.33461982	    -11.83000123	      0.00000000	      0.00000000	    -57.38952562	      0.19808962	      5.71035715	     89.76321232	     -9.86206973	     34.59744851	     34.34303868	     23.74110698	      0.00000000	      0.00000000	     89.64046399	     -4.43294865	     34.26428732	     40.58038715	     25.00134791	      0.00000000	      0.00000000
      2.52500000	    -17.00773499	     -6.54406385	     -1.38409588	      0.11601073	      1.10720857	     -0.25460529	      0.00000000	      0.50000000	      0.00000000	      0.25000000	     82.39647180	     -1.87770752	     -3.00754185	    110.90049348	      1.93557875	     -1.64736906	    -12.60430366	      0.00000000	      0.00000000	     49.51344111	     -7.98328217	      6.79261640	     31.80691058	      0.55513531	    -15.30162212	    -10.92610611	      0.00000000	      0.00000000	    -57.23540263	      0.29791405	      5.88343844	     89.76272966	     -9.64255759	     34.67400719	     34.22374429	     23.69138126	      0.00000000	      0.00000000	     89.63795804	     -4.46317194	     34.32664630	     40.36885655	     24.95925670	      0.00000000	      0.00000000
      2.53000000	    -17.13729157	     -6.75100805	     -1.52542391	      0.11674965	      1.10801184	     -0.25509027	      0.00000000	      0.50000000	      0.00000000	      0.25000000	     83.30174320	     -1.83919048	     -3.13480550	    111.40531715	      1.94438959	     -1.02776385	    -12.42820159	      0.00000000	      0.00000000	     48.66977664	     -8.44299017	      6.41137574	     30.77372565	      0.53710284	    -16.04780918	    -10.04250417	      0.00000000	      0.00000000	    -57.09344361	      0.42818169	      6.01856941	     89.76462196	     -9.39445572	     34.75977800	     34.05625971	     23.63463254	      0.00000000	      0.00000000	     89.63930689	     -4.51269948	     34.40597587	     40.11939796	     24.91073591	      0.00000000	      0.00000000
      2.53500000	    -17.27493201	     -6.88597908	     -1.66487761	      0.11750977	      1.10890717	     -0.25560598	      0.00000000	      0.50000000	      0.00000000	      0.25000000	     84.18687314	     -1.83140738	     -3.19047004	    111.82757594	      1.95175939	     -0.45098705	    -12.24063094	      0.00000000	      0.00000000	     47.82024425	     -8.85048031	      5.85062282	     29.69372831	      0.51825333	    -16.92558325	     -9.09236509	      0.00000000	      0.00000000	    -56.98183151	      0.53320273	      6.05286208	     89.76664235	     -9.06536175	     34.87108363	     33.83106945	     23.56255519	      0.00000000	      0.00000000	     89.64707994	     -4.60300603	     34.51397246	     39.78987617	     24.84693522	      0.00000000	      0.00000000
      2.54000000	    -17.37876836	     -6.97163606	     -1.78738562	      0.11821421	      1.10981931	     -0.25610534	      0.00000000	      0.50000000	      0.00000000	      0.25000000	     85.04182938	     -1.84156748	     -3.22037483	    112.19773658	      1.95821992	      0.14399260	    -12.14591419	      0.00000000	      0.00000000	     46.96394005	     -9.20250294	      5.22905652	     28.73166124	      0.50146209	    -17.65908901	     -8.25385228	      0.00000000	      0.00000000	    -56.88694919	      0.61745230	      6.01016401	     89.76846977	     -8.70347263	     34.98399366	     33.60294418	     23.48752582	      0.00000000	      0.00000000	     89.65468824	     -4.73753455	     34.63631206	     39.46530920	     24.78295144	      0.00000000	      0.00000000
